<?xml version="1.0" encoding="UTF-8"?>
<svg id="Layer_1" data-name="Layer 1" xmlns="http://www.w3.org/2000/svg" viewBox="0 0 841.89 595.28">
  <defs>
    <style>
      .cls-1 {
        stroke-width: 0px;
      }
    </style>
  </defs>
  <path class="cls-1" d="M233.23,307.79h16.2c-1.78,14.99-6.57,28.17-14.39,39.54-7.82,11.36-17.89,20.23-30.23,26.6-12.33,6.37-26.08,9.55-41.23,9.55-12.42,0-23.86-2.1-34.34-6.29-10.48-4.19-19.63-10.16-27.45-17.89-7.82-7.74-13.9-16.89-18.26-27.45-4.35-10.56-6.53-22.12-6.53-34.7s2.18-24.1,6.53-34.58c4.35-10.48,10.44-19.59,18.26-27.32,7.82-7.74,16.96-13.7,27.45-17.9,10.48-4.19,21.92-6.29,34.34-6.29,13.54,0,25.99,2.54,37.36,7.62,11.36,5.08,21.04,12.17,29.02,21.28,7.98,9.11,13.58,19.79,16.81,32.04h-15.96c-2.9-11.61-7.58-21.76-14.03-30.47-6.45-8.71-14.23-15.44-23.34-20.19-9.11-4.75-19.07-7.13-29.86-7.13-13.22,0-25.11,3.43-35.67,10.28-10.56,6.85-18.86,16.49-24.91,28.9-6.05,12.42-9.07,27-9.07,43.77s2.98,30.67,8.95,43.16c5.96,12.49,14.23,22.29,24.79,29.38,10.56,7.1,22.53,10.64,35.91,10.64,12.25,0,23.37-2.98,33.37-8.95,9.99-5.96,18.17-14.35,24.54-25.15,6.37-10.8,10.28-23.61,11.73-38.45ZM161.65,310.94v-3.14h86.09v1.69l-3.63,1.45h-82.46Z"/>
  <path class="cls-1" d="M291.5,381.06h-15.96v-167.58h15.96v167.58Z"/>
  <path class="cls-1" d="M338.42,381.06h-15.96v-167.58h15.96v167.58ZM336,216.63v-3.14h63.84v3.14h-63.84ZM336,298.85v-3.14h58.28v3.14h-58.28ZM336,381.06v-3.14h63.84v3.14h-63.84Z"/>
  <path class="cls-1" d="M439.98,381.06h-15.96v-167.58h15.96v167.58ZM438.28,377.92h2.9c12.73,0,24.18-3.42,34.34-10.28,10.16-6.85,18.22-16.36,24.18-28.53,5.96-12.17,8.95-26.15,8.95-41.95s-2.98-29.74-8.95-41.83c-5.97-12.09-14.03-21.56-24.18-28.41-10.16-6.85-21.6-10.28-34.34-10.28h-2.9v-3.14h2.9c11.93,0,23.01,2.06,33.25,6.17,10.23,4.11,19.18,9.88,26.84,17.29,7.66,7.42,13.62,16.24,17.89,26.48,4.27,10.24,6.41,21.48,6.41,33.73s-2.14,23.5-6.41,33.73c-4.27,10.24-10.24,19.1-17.89,26.6-7.66,7.5-16.61,13.3-26.84,17.41-10.24,4.11-21.32,6.17-33.25,6.17h-2.9v-3.14Z"/>
  <path class="cls-1" d="M549.28,381.06v-167.58h15.96v167.58h-15.96ZM585.55,216.63h-22.25v-3.14h26.84c8.71,0,16.52,1.86,23.46,5.56,6.93,3.71,12.41,8.79,16.44,15.23,4.03,6.45,6.04,13.87,6.04,22.25s-2.02,15.52-6.04,21.88c-4.03,6.37-9.51,11.37-16.44,14.99-6.93,3.63-14.75,5.44-23.46,5.44h-25.63v-3.14h21.04c6.77,0,12.69-1.69,17.77-5.08s9.03-8.02,11.85-13.9c2.82-5.88,4.23-12.61,4.23-20.19s-1.41-14.18-4.23-20.31c-2.82-6.12-6.77-10.92-11.85-14.39-5.08-3.46-11-5.2-17.77-5.2ZM584.82,297.64l15.72-.73,39.17,84.15h-16.93l-37.97-83.43Z"/>
  <path class="cls-1" d="M677.68,381.06h-15.96v-167.58h15.96v167.58ZM675.26,216.63v-3.14h63.84v3.14h-63.84ZM675.26,298.85v-3.14h58.28v3.14h-58.28ZM675.26,381.06v-3.14h63.84v3.14h-63.84Z"/>
</svg>